<svg width="24" height="25" viewBox="0 0 24 25" fill="none" xmlns="http://www.w3.org/2000/svg">
<g clip-path="url(#clip0_1919_12681)">
<path d="M0.0536804 24.665L1.74139 18.5023C0.70037 16.6989 0.15258 14.6529 0.15343 12.5568C0.15606 5.99968 5.49276 0.665039 12.0499 0.665039C15.2322 0.666309 18.2192 1.9049 20.4652 4.15277C22.7113 6.40065 23.9475 9.38864 23.9463 12.5663C23.9436 19.1235 18.6065 24.4588 12.05 24.4588H12.05H12.0451C10.0541 24.458 8.09773 23.9587 6.36015 23.0113L0.0536804 24.665ZM6.65232 20.8582L7.01339 21.0725C8.53149 21.9731 10.2717 22.4496 12.0459 22.4503H12.05C17.4999 22.4503 21.9355 18.016 21.9377 12.5656C21.9387 9.92439 20.9112 7.44088 19.0444 5.57252C17.1775 3.70416 14.6949 2.67463 12.0539 2.67362C6.59986 2.67362 2.16418 7.10755 2.162 12.5576C2.16124 14.4253 2.68401 16.2443 3.67378 17.8181L3.90891 18.192L2.91 21.8396L6.65232 20.8582Z" fill="white"/>
<path fill-rule="evenodd" clip-rule="evenodd" d="M9.07667 7.58551C8.83541 7.00606 8.59034 7.08446 8.40788 7.07538C8.2347 7.06676 8.03634 7.06494 7.83818 7.06494C7.64002 7.06494 7.318 7.1393 7.04552 7.43677C6.77306 7.73426 6.00519 8.45318 6.00519 9.91577C6.00519 11.3784 7.0703 12.7914 7.21893 12.9897C7.36754 13.188 9.31495 16.1895 12.2968 17.4767C13.0059 17.7828 13.5597 17.9656 13.9913 18.1026C14.7034 18.3287 15.3514 18.2969 15.8636 18.2204C16.4347 18.1351 17.6222 17.5015 17.87 16.8073C18.1176 16.1132 18.1176 15.5183 18.0433 15.3943C17.969 15.2704 17.7709 15.196 17.4736 15.0472C17.1764 14.8985 15.715 14.1796 15.4425 14.0805C15.17 13.9813 14.9719 13.9317 14.7737 14.2292C14.5756 14.5267 14.0059 15.196 13.8325 15.3943C13.6591 15.5926 13.4857 15.6174 13.1885 15.4687C12.8912 15.32 11.9335 15.0062 10.7981 13.9938C9.91449 13.2059 9.31788 12.2327 9.14449 11.9352C8.9711 11.6378 9.12605 11.4769 9.27485 11.3288C9.40855 11.1957 9.57208 10.9817 9.72071 10.8082C9.86932 10.6347 9.91887 10.5107 10.0179 10.3124C10.117 10.1141 10.0675 9.94055 9.99317 9.79181C9.91885 9.64308 9.32439 8.18046 9.07667 7.58551Z" fill="white"/>
</g>
<defs>
<clipPath id="clip0_1919_12681">
<rect width="24" height="24" fill="white" transform="translate(0 0.665039)"/>
</clipPath>
</defs>
</svg>
